<svg aria-hidden="true" style="position:absolute;width:0;height:0" xmlns="http://www.w3.org/2000/svg" overflow="hidden"><defs><symbol id="menu" viewBox="0 0 32 32"><path d="M5.76 23.68c-.363 0-.667-.123-.913-.369s-.368-.549-.367-.911c0-.363.123-.667.369-.913s.55-.368.911-.367h20.48c.363 0 .667.123.913.369s.368.549.367.911c0 .363-.123.667-.369.913s-.549.368-.911.367H5.76zm0-6.4c-.363 0-.667-.123-.913-.369s-.368-.549-.367-.911c0-.363.123-.667.369-.913s.55-.368.911-.367h20.48c.363 0 .667.123.913.369s.368.55.367.911c0 .363-.123.667-.369.913s-.549.368-.911.367H5.76zm0-6.4c-.363 0-.667-.123-.913-.369s-.368-.55-.367-.911c0-.363.123-.667.369-.913s.55-.368.911-.367h20.48c.363 0 .667.123.913.369s.368.55.367.911c0 .363-.123.667-.369.913s-.549.368-.911.367H5.76z"/></symbol><symbol id="telegram" viewBox="0 0 32 32"><path d="M16.001 2.667C8.641 2.667 2.668 8.64 2.668 16s5.973 13.333 13.333 13.333S29.334 23.36 29.334 16 23.361 2.667 16.001 2.667zm6.186 9.067c-.2 2.107-1.067 7.227-1.507 9.587-.187 1-.56 1.333-.907 1.373-.773.067-1.36-.507-2.107-1-1.173-.773-1.84-1.253-2.973-2-1.32-.867-.467-1.347.293-2.12.2-.2 3.613-3.307 3.68-3.587a.264.264 0 00-.067-.24c-.08-.067-.187-.04-.28-.027-.12.027-1.987 1.267-5.627 3.72-.533.36-1.013.547-1.44.533-.48-.013-1.387-.267-2.067-.493-.84-.267-1.493-.413-1.44-.88.027-.24.36-.48.987-.733 3.893-1.693 6.48-2.813 7.773-3.347 3.707-1.547 4.467-1.813 4.973-1.813.107 0 .36.027.52.16a.534.534 0 01.187.36c-.013.08.013.32 0 .507z"/></symbol><symbol id="viber" viewBox="0 0 32 32"><path d="M22.234 3.503l.452.101A6.546 6.546 0 0127.6 8.377a25.963 25.963 0 010 12.769 6.546 6.546 0 01-4.912 4.773l-.453.1a29.173 29.173 0 01-8.149.649l-3.641 3.257c-.089.079-.198.133-.314.157s-.238.015-.35-.025a.669.669 0 01-.437-.519l-.62-3.701a6.539 6.539 0 01-4.592-4.694 25.963 25.963 0 010-12.769 6.541 6.541 0 014.912-4.773l.452-.1a29.191 29.191 0 0112.74 0zM10.62 8.269a1.1 1.1 0 00-.716.141h-.019c-.5.293-.951.663-1.335 1.097-.32.369-.493.743-.539 1.103-.027.213-.008.429.055.633l.024.013c.36 1.057.829 2.075 1.403 3.032a17.81 17.81 0 002.707 3.7l.032.045.051.037.031.036.037.032a18.089 18.089 0 003.709 2.72c1.54.839 2.475 1.235 3.036 1.4v.008c.164.051.313.073.464.073.478-.035.93-.23 1.285-.552.433-.384.8-.836 1.085-1.339v-.009c.268-.507.177-.984-.209-1.308a16.159 16.159 0 00-2.508-1.8c-.597-.324-1.204-.128-1.449.2l-.524.661c-.269.328-.757.283-.757.283l-.013.008c-3.641-.929-4.613-4.616-4.613-4.616s-.045-.501.292-.757l.656-.528c.315-.256.533-.861.196-1.459a15.774 15.774 0 00-1.796-2.507 1.003 1.003 0 00-.587-.351l.003.001zm6.152-1.603a.665.665 0 100 1.332c1.687 0 3.087.551 4.195 1.607a5.91 5.91 0 011.304 2.011c.292.751.425 1.552.391 2.355a.66.66 0 00.175.479.666.666 0 001.158-.423 7.162 7.162 0 00-.481-2.893 7.265 7.265 0 00-1.605-2.472l-.013-.013c-1.375-1.313-3.115-1.983-5.123-1.983zm-.046 2.192a.665.665 0 100 1.332h.023c1.216.087 2.101.492 2.721 1.157.636.685.965 1.537.94 2.591a.667.667 0 101.333.031c.032-1.383-.413-2.576-1.296-3.528v-.003c-.903-.968-2.141-1.48-3.632-1.58l-.023-.003-.067.001zm-.025 2.233a.656.656 0 00-.496.161.655.655 0 00-.229.469.67.67 0 00.395.644c.082.036.17.056.26.057.557.029.913.197 1.137.423.225.227.393.591.424 1.16a.66.66 0 00.212.475.682.682 0 00.49.178.657.657 0 00.468-.229.672.672 0 00.161-.495c-.043-.8-.293-1.507-.807-2.027-.516-.52-1.219-.773-2.016-.816z"/></symbol><symbol id="whatsapp" viewBox="0 0 32 32"><path d="M16.002 2.667c7.364 0 13.333 5.969 13.333 13.333s-5.969 13.333-13.333 13.333a13.273 13.273 0 01-6.707-1.807l-6.621 1.807 1.803-6.624A13.268 13.268 0 012.669 16c0-7.364 5.969-13.333 13.333-13.333zm-4.544 7.067l-.267.011a1.28 1.28 0 00-.496.133 1.703 1.703 0 00-.392.304c-.16.151-.251.281-.348.408a3.64 3.64 0 00-.755 2.237c.003.653.173 1.289.44 1.884.545 1.203 1.443 2.476 2.627 3.656.285.284.565.569.867.835a12.602 12.602 0 005.12 2.728l.757.116c.247.013.493-.005.741-.017.388-.02.767-.125 1.111-.308.175-.09.345-.188.511-.293 0 0 .057-.037.167-.12.18-.133.291-.228.44-.384.111-.115.207-.249.28-.403.104-.217.208-.632.251-.977.032-.264.023-.408.019-.497-.005-.143-.124-.291-.253-.353l-.776-.348s-1.16-.505-1.869-.828a.678.678 0 00-.235-.055.651.651 0 00-.504.169c-.007-.003-.096.073-1.06 1.241a.47.47 0 01-.491.173 1.92 1.92 0 01-.255-.088c-.165-.069-.223-.096-.336-.144a8.039 8.039 0 01-2.1-1.337c-.168-.147-.324-.307-.484-.461a8.363 8.363 0 01-1.36-1.691l-.079-.127a1.221 1.221 0 01-.136-.273c-.051-.196.081-.353.081-.353s.324-.355.475-.547a5.74 5.74 0 00.351-.497c.157-.253.207-.513.124-.715-.373-.912-.76-1.82-1.157-2.721-.079-.179-.312-.307-.524-.332-.072-.008-.144-.016-.216-.021a4.582 4.582 0 00-.537.005l.268-.011.001.001z"/></symbol><symbol id="close" viewBox="0 0 32 32"><path d="M23.883 6.706l-7.884 7.884-7.884-7.884a.995.995 0 00-1.38.031 1 1 0 00-.031 1.38l7.88 7.884-7.882 7.882a1.002 1.002 0 00-.018 1.427.992.992 0 001.427-.015l7.886-7.882 7.884 7.884a1 1 0 001.38-.03 1 1 0 00.031-1.38l-7.884-7.884 7.884-7.886a1.002 1.002 0 00.018-1.427.992.992 0 00-1.427.015v.002z"/></symbol></defs></svg>