<svg aria-hidden="true" style="position: absolute; width: 0; height: 0; overflow: hidden;" version="1.1" xmlns="http://www.w3.org/2000/svg" xmlns:xlink="http://www.w3.org/1999/xlink">
<defs>
<symbol id="menu" viewBox="0 0 32 32">
<path d="M5.76 23.68c-0.363 0-0.667-0.123-0.913-0.369s-0.368-0.549-0.367-0.911c0-0.363 0.123-0.667 0.369-0.913s0.55-0.368 0.911-0.367h20.48c0.363 0 0.667 0.123 0.913 0.369s0.368 0.549 0.367 0.911c0 0.363-0.123 0.667-0.369 0.913s-0.549 0.368-0.911 0.367h-20.48zM5.76 17.28c-0.363 0-0.667-0.123-0.913-0.369s-0.368-0.549-0.367-0.911c0-0.363 0.123-0.667 0.369-0.913s0.55-0.368 0.911-0.367h20.48c0.363 0 0.667 0.123 0.913 0.369s0.368 0.55 0.367 0.911c0 0.363-0.123 0.667-0.369 0.913s-0.549 0.368-0.911 0.367h-20.48zM5.76 10.88c-0.363 0-0.667-0.123-0.913-0.369s-0.368-0.55-0.367-0.911c0-0.363 0.123-0.667 0.369-0.913s0.55-0.368 0.911-0.367h20.48c0.363 0 0.667 0.123 0.913 0.369s0.368 0.55 0.367 0.911c0 0.363-0.123 0.667-0.369 0.913s-0.549 0.368-0.911 0.367h-20.48z"></path>
</symbol>
<symbol id="telegram" viewBox="0 0 32 32">
<path d="M16.001 2.667c-7.36 0-13.333 5.973-13.333 13.333s5.973 13.333 13.333 13.333c7.36 0 13.333-5.973 13.333-13.333s-5.973-13.333-13.333-13.333zM22.187 11.734c-0.2 2.107-1.067 7.227-1.507 9.587-0.187 1-0.56 1.333-0.907 1.373-0.773 0.067-1.36-0.507-2.107-1-1.173-0.773-1.84-1.253-2.973-2-1.32-0.867-0.467-1.347 0.293-2.12 0.2-0.2 3.613-3.307 3.68-3.587 0.009-0.042 0.008-0.086-0.004-0.128s-0.033-0.080-0.063-0.112c-0.080-0.067-0.187-0.040-0.28-0.027-0.12 0.027-1.987 1.267-5.627 3.72-0.533 0.36-1.013 0.547-1.44 0.533-0.48-0.013-1.387-0.267-2.067-0.493-0.84-0.267-1.493-0.413-1.44-0.88 0.027-0.24 0.36-0.48 0.987-0.733 3.893-1.693 6.48-2.813 7.773-3.347 3.707-1.547 4.467-1.813 4.973-1.813 0.107 0 0.36 0.027 0.52 0.16 0.133 0.107 0.173 0.253 0.187 0.36-0.013 0.080 0.013 0.32 0 0.507z"></path>
</symbol>
<symbol id="viber" viewBox="0 0 32 32">
<path d="M22.234 3.503l0.452 0.101c1.18 0.264 2.264 0.849 3.132 1.692s1.484 1.909 1.782 3.081c1.063 4.19 1.063 8.579 0 12.769-0.298 1.172-0.914 2.238-1.781 3.081s-1.951 1.428-3.131 1.692l-0.453 0.1c-2.673 0.598-5.416 0.816-8.149 0.649l-3.641 3.257c-0.089 0.079-0.198 0.133-0.314 0.157s-0.238 0.015-0.35-0.025c-0.112-0.040-0.212-0.108-0.289-0.2s-0.128-0.201-0.148-0.319l-0.62-3.701c-1.111-0.308-2.121-0.904-2.928-1.729s-1.381-1.847-1.664-2.965c-1.063-4.19-1.063-8.579 0-12.769 0.298-1.172 0.914-2.239 1.781-3.081s1.951-1.428 3.131-1.692l0.452-0.1c4.195-0.938 8.545-0.938 12.74 0zM10.62 8.269c-0.248-0.036-0.5 0.014-0.716 0.141h-0.019c-0.5 0.293-0.951 0.663-1.335 1.097-0.32 0.369-0.493 0.743-0.539 1.103-0.027 0.213-0.008 0.429 0.055 0.633l0.024 0.013c0.36 1.057 0.829 2.075 1.403 3.032 0.739 1.345 1.649 2.588 2.707 3.7l0.032 0.045 0.051 0.037 0.031 0.036 0.037 0.032c1.116 1.061 2.362 1.975 3.709 2.72 1.54 0.839 2.475 1.235 3.036 1.4v0.008c0.164 0.051 0.313 0.073 0.464 0.073 0.478-0.035 0.93-0.23 1.285-0.552 0.433-0.384 0.8-0.836 1.085-1.339v-0.009c0.268-0.507 0.177-0.984-0.209-1.308-0.777-0.679-1.616-1.281-2.508-1.8-0.597-0.324-1.204-0.128-1.449 0.2l-0.524 0.661c-0.269 0.328-0.757 0.283-0.757 0.283l-0.013 0.008c-3.641-0.929-4.613-4.616-4.613-4.616s-0.045-0.501 0.292-0.757l0.656-0.528c0.315-0.256 0.533-0.861 0.196-1.459-0.515-0.892-1.117-1.732-1.796-2.507-0.148-0.182-0.356-0.306-0.587-0.351l0.003 0.001zM16.772 6.666c-0.177 0-0.346 0.070-0.471 0.195s-0.195 0.295-0.195 0.471c0 0.177 0.070 0.346 0.195 0.471s0.295 0.195 0.471 0.195c1.687 0 3.087 0.551 4.195 1.607 0.569 0.577 1.013 1.261 1.304 2.011 0.292 0.751 0.425 1.552 0.391 2.355-0.004 0.088 0.010 0.175 0.040 0.257s0.076 0.158 0.135 0.222c0.12 0.13 0.286 0.208 0.463 0.215s0.349-0.056 0.48-0.175c0.13-0.12 0.208-0.286 0.215-0.463 0.041-0.987-0.123-1.973-0.481-2.893-0.36-0.925-0.907-1.766-1.605-2.472l-0.013-0.013c-1.375-1.313-3.115-1.983-5.123-1.983zM16.726 8.858c-0.177 0-0.346 0.070-0.471 0.195s-0.195 0.295-0.195 0.471 0.070 0.346 0.195 0.471c0.125 0.125 0.295 0.195 0.471 0.195h0.023c1.216 0.087 2.101 0.492 2.721 1.157 0.636 0.685 0.965 1.537 0.94 2.591-0.004 0.177 0.062 0.348 0.184 0.476s0.29 0.202 0.467 0.206c0.177 0.004 0.348-0.062 0.476-0.184s0.202-0.29 0.206-0.467c0.032-1.383-0.413-2.576-1.296-3.528v-0.003c-0.903-0.968-2.141-1.48-3.632-1.58l-0.023-0.003-0.067 0.001zM16.701 11.091c-0.089-0.008-0.179 0.002-0.264 0.030s-0.164 0.072-0.232 0.131c-0.068 0.059-0.123 0.13-0.162 0.211s-0.062 0.168-0.067 0.258c-0.005 0.090 0.009 0.179 0.039 0.263s0.078 0.161 0.139 0.227c0.061 0.066 0.135 0.118 0.217 0.154s0.17 0.056 0.26 0.057c0.557 0.029 0.913 0.197 1.137 0.423 0.225 0.227 0.393 0.591 0.424 1.16 0.002 0.089 0.021 0.178 0.058 0.259s0.089 0.155 0.154 0.216c0.066 0.061 0.143 0.108 0.227 0.139s0.174 0.044 0.263 0.039c0.089-0.005 0.177-0.027 0.257-0.067s0.152-0.094 0.211-0.162c0.059-0.068 0.103-0.146 0.131-0.231s0.038-0.175 0.030-0.264c-0.043-0.8-0.293-1.507-0.807-2.027-0.516-0.52-1.219-0.773-2.016-0.816z"></path>
</symbol>
<symbol id="whatsapp" viewBox="0 0 32 32">
<path d="M16.002 2.667c7.364 0 13.333 5.969 13.333 13.333s-5.969 13.333-13.333 13.333c-2.356 0.004-4.671-0.62-6.707-1.807l-6.621 1.807 1.803-6.624c-1.188-2.036-1.812-4.352-1.808-6.709 0-7.364 5.969-13.333 13.333-13.333zM11.458 9.734l-0.267 0.011c-0.173 0.010-0.341 0.056-0.496 0.133-0.145 0.082-0.277 0.184-0.392 0.304-0.16 0.151-0.251 0.281-0.348 0.408-0.493 0.641-0.759 1.428-0.755 2.237 0.003 0.653 0.173 1.289 0.44 1.884 0.545 1.203 1.443 2.476 2.627 3.656 0.285 0.284 0.565 0.569 0.867 0.835 1.471 1.295 3.224 2.229 5.12 2.728l0.757 0.116c0.247 0.013 0.493-0.005 0.741-0.017 0.388-0.020 0.767-0.125 1.111-0.308 0.175-0.090 0.345-0.188 0.511-0.293 0 0 0.057-0.037 0.167-0.12 0.18-0.133 0.291-0.228 0.44-0.384 0.111-0.115 0.207-0.249 0.28-0.403 0.104-0.217 0.208-0.632 0.251-0.977 0.032-0.264 0.023-0.408 0.019-0.497-0.005-0.143-0.124-0.291-0.253-0.353l-0.776-0.348c0 0-1.16-0.505-1.869-0.828-0.074-0.032-0.154-0.051-0.235-0.055-0.091-0.009-0.183 0.001-0.27 0.030s-0.167 0.077-0.234 0.139c-0.007-0.003-0.096 0.073-1.060 1.241-0.055 0.074-0.132 0.13-0.219 0.161s-0.182 0.035-0.272 0.012c-0.087-0.023-0.172-0.053-0.255-0.088-0.165-0.069-0.223-0.096-0.336-0.144-0.765-0.334-1.474-0.785-2.1-1.337-0.168-0.147-0.324-0.307-0.484-0.461-0.525-0.502-0.982-1.071-1.36-1.691l-0.079-0.127c-0.057-0.085-0.102-0.177-0.136-0.273-0.051-0.196 0.081-0.353 0.081-0.353s0.324-0.355 0.475-0.547c0.147-0.187 0.271-0.368 0.351-0.497 0.157-0.253 0.207-0.513 0.124-0.715-0.373-0.912-0.76-1.82-1.157-2.721-0.079-0.179-0.312-0.307-0.524-0.332-0.072-0.008-0.144-0.016-0.216-0.021-0.179-0.009-0.358-0.007-0.537 0.005l0.268-0.011 0.001 0.001z"></path>
</symbol>
<symbol id="close" viewBox="0 0 32 32">
<path d="M23.883 6.706l-7.884 7.884-7.884-7.884c-0.19-0.174-0.439-0.267-0.696-0.261s-0.502 0.11-0.684 0.292c-0.182 0.182-0.286 0.427-0.292 0.684s0.088 0.506 0.261 0.696l7.88 7.884-7.882 7.882c-0.096 0.092-0.173 0.202-0.226 0.324s-0.081 0.253-0.083 0.386c-0.002 0.133 0.023 0.265 0.073 0.388s0.124 0.235 0.218 0.329c0.094 0.094 0.206 0.168 0.329 0.219s0.255 0.075 0.388 0.074c0.133-0.001 0.264-0.029 0.386-0.082s0.232-0.13 0.324-0.226l7.886-7.882 7.884 7.884c0.19 0.174 0.439 0.267 0.696 0.262s0.502-0.11 0.684-0.292c0.182-0.182 0.286-0.427 0.292-0.684s-0.088-0.506-0.261-0.696l-7.884-7.884 7.884-7.886c0.096-0.092 0.173-0.202 0.226-0.324s0.081-0.253 0.083-0.386c0.002-0.133-0.023-0.265-0.073-0.388s-0.124-0.235-0.218-0.329c-0.094-0.094-0.206-0.168-0.329-0.219s-0.255-0.075-0.388-0.074c-0.133 0.001-0.264 0.029-0.386 0.082s-0.232 0.13-0.324 0.226v0.002z"></path>
</symbol>
</defs>
</svg>
